<svg width="86" height="78" viewBox="0 0 86 78" fill="none" xmlns="http://www.w3.org/2000/svg"><path d="M80.11 14.03h-3.34V8.05A7.29 7.29 0 0 0 69.49.76L44.11.75c-1.45 0-2.8.56-3.83 1.58l-37.9 37.9a7.23 7.23 0 0 0-2.13 5.15c0 1.94.76 3.77 2.13 5.15l24.6 24.6a7.26 7.26 0 0 0 10.3 0l23.85-23.87a1.67 1.67 0 1 0-2.36-2.36L34.9 72.76a3.94 3.94 0 0 1-5.57 0l-24.6-24.6a3.91 3.91 0 0 1 0-5.57l37.9-37.9c.4-.38.91-.6 1.46-.6l25.4.02a3.94 3.94 0 0 1 3.93 3.94l-.01 14h-7.53c-.64 0-1.23-.27-1.65-.7a6.17 6.17 0 1 0-3.65.38 5.69 5.69 0 0 0 5.3 3.66h7.53v8c0 .56-.22 1.08-.61 1.47l-4.59 4.59a1.67 1.67 0 1 0 2.36 2.36l4.6-4.59a5.38 5.38 0 0 0 1.58-3.82v-8.01h3.35a5.69 5.69 0 0 0 0-11.36Zm-20.3-.32a2.8 2.8 0 0 1 4.42.57 5.7 5.7 0 0 0-3.8 3.88 2.8 2.8 0 0 1-.62-4.45Zm20.3 8.34h-3.35v-4.68h3.35a2.34 2.34 0 0 1 0 4.68Z" fill="#fff"/><path d="M27.22 42.9a1.67 1.67 0 0 0 2.05 1.17l17.16-4.78a1.67 1.67 0 0 0-.9-3.22l-17.15 4.78a1.67 1.67 0 0 0-1.16 2.05ZM34.77 45.1a4.9 4.9 0 0 0 0 6.97 4.91 4.91 0 0 0 6.96 0 4.93 4.93 0 0 0-6.96-6.96Zm4.6 4.61a1.59 1.59 0 1 1-2.24-2.24 1.59 1.59 0 0 1 2.24 2.24ZM42.56 35.16a4.93 4.93 0 1 0-6.98-6.97 4.93 4.93 0 0 0 6.98 6.97Zm-4.6-4.6a1.57 1.57 0 0 1 2.24 0 1.59 1.59 0 1 1-2.24 0Z" fill="#fff"/><path d="M16.87 39.45a1.67 1.67 0 0 0-2.37 0L9.76 44.2a1.67 1.67 0 0 0 0 2.36l21.18 21.19a1.67 1.67 0 0 0 2.37 0l31.67-31.68c.65-.65.65-1.71 0-2.36L43.8 12.52a1.67 1.67 0 0 0-2.37 0L23.96 30a1.67 1.67 0 0 0 2.36 2.36l16.3-16.3L61.43 34.9 32.12 64.2 13.3 45.38l3.57-3.57c.65-.65.65-1.7 0-2.36ZM64.68 43.68A1.68 1.68 0 0 0 63 45.35a1.68 1.68 0 0 0 1.67 1.67 1.68 1.68 0 0 0 1.67-1.67 1.68 1.68 0 0 0-1.67-1.67Z" fill="#fff"/><path d="M21.6 37.09a1.67 1.67 0 1 0-2.37-2.37 1.67 1.67 0 0 0 2.36 2.37Z" fill="#fff"/></svg>