<svg width="86" height="67" viewBox="0 0 86 67" fill="none" xmlns="http://www.w3.org/2000/svg"><path d="M81.21 6.49h-5.67V5.07c0-2.35-1.9-4.26-4.25-4.26h-8.51v.04a5.6 5.6 0 0 0-3.53 1.21L42.33 15.7a4.24 4.24 0 0 0-3.66-2.12h-22.7a4.25 4.25 0 0 0-4.25 4.25v9.93H4.63A4.25 4.25 0 0 0 .38 32v19.86c0 1.8 1.14 3.4 2.84 4v.25a9.93 9.93 0 1 0 19.85 0h8.5a9.93 9.93 0 1 0 11.35-9.81V34.96L62.88 14.5a4.25 4.25 0 0 0 4.15 3.34h2.84v8.51a2.84 2.84 0 0 0 2.83 2.84V40.6c-4.07.44-7.09 2.74-7.09 5.6 0 2.85 3.02 5.15 7.1 5.59V63.2a1.42 1.42 0 1 0 2.83 0V60.3c4.07-.44 7.1-2.74 7.1-5.6 0-2.85-3.03-5.15-7.1-5.59v-5.83c4.07-.44 7.1-2.74 7.1-5.6 0-2.85-3.03-5.15-7.1-5.58v-2.92a2.84 2.84 0 0 0 2.84-2.84v-8.5h2.83c2.35 0 4.26-1.91 4.26-4.26v-2.84c0-2.35-1.9-4.25-4.26-4.25Zm-12.76 39.7c0-1.13 1.75-2.37 4.25-2.72v5.45c-2.5-.35-4.25-1.59-4.25-2.72ZM79.8 54.7c0 1.14-1.75 2.38-4.26 2.73v-5.45c2.5.35 4.26 1.59 4.26 2.72Zm0-17.01c0 1.13-1.75 2.37-4.26 2.72v-5.45c2.5.35 4.26 1.6 4.26 2.73ZM72.7 5.07v1.42h-4.27c0-1-.25-1.98-.75-2.84h3.6c.79 0 1.42.63 1.42 1.42ZM40.1 17.83V37.7H23.07c-.79 0-1.42-.64-1.42-1.42V16.4h17.02c.78 0 1.42.64 1.42 1.42ZM3.2 51.87V32c0-.78.64-1.41 1.42-1.41h7.1v15.7a9.94 9.94 0 0 0-7.99 6.65 1.4 1.4 0 0 1-.53-1.08Zm9.93 11.34a7.1 7.1 0 1 1 0-14.18 7.1 7.1 0 0 1 0 14.18Zm9.5-9.92a9.94 9.94 0 0 0-8.08-6.98V17.83c0-.78.63-1.42 1.42-1.42h2.83v19.86c0 2.35 1.9 4.25 4.26 4.25h17.02v5.79A9.94 9.94 0 0 0 32 53.29h-9.35Zm25.95 2.83a7.1 7.1 0 1 1-14.18 0 7.1 7.1 0 0 1 14.18 0Zm-5.67-37.25 18.1-14.6a2.82 2.82 0 0 1 4.57 2.48 4.24 4.24 0 0 0-2.78 3.76L42.92 30.9V18.86Zm32.62 7.47H72.7v-8.5h2.84v8.5Zm7.1-12.76c0 .78-.64 1.41-1.43 1.41H67.03c-.78 0-1.42-.63-1.42-1.41v-2.84c0-.78.64-1.42 1.42-1.42h14.18c.79 0 1.42.64 1.42 1.42v2.84Z" fill="#F1F5F7"/><path d="M25.9 23.5c.38 0 .74-.15 1-.41l1.42-1.42a1.42 1.42 0 0 0-2-2l-1.42 1.41a1.42 1.42 0 0 0 1 2.42ZM25.9 30.6c.38 0 .74-.15 1-.42l8.51-8.51a1.42 1.42 0 0 0-2-2l-8.51 8.5a1.42 1.42 0 0 0 1 2.43ZM13.14 51.87a4.25 4.25 0 1 0 0 8.5 4.25 4.25 0 0 0 0-8.5Zm0 5.67a1.42 1.42 0 1 1 0-2.84 1.42 1.42 0 0 1 0 2.84ZM37.25 56.12a4.25 4.25 0 1 0 8.5 0 4.25 4.25 0 0 0-8.5 0Zm5.67 0a1.42 1.42 0 1 1-2.83 0 1.42 1.42 0 0 1 2.83 0ZM24.48 43.36h-1.41a1.42 1.42 0 0 0 0 2.84h1.41a1.42 1.42 0 0 0 0-2.84Z" fill="#F1F5F7"/></svg>